<?xml version="1.0" encoding="UTF-8" standalone="no"?>
<svg
   xmlns:dc="http://purl.org/dc/elements/1.1/"
   xmlns:cc="http://creativecommons.org/ns#"
   xmlns:rdf="http://www.w3.org/1999/02/22-rdf-syntax-ns#"
   xmlns:svg="http://www.w3.org/2000/svg"
   xmlns="http://www.w3.org/2000/svg"
   xmlns:sodipodi="http://sodipodi.sourceforge.net/DTD/sodipodi-0.dtd"
   xmlns:inkscape="http://www.inkscape.org/namespaces/inkscape"
   width="85"
   height="22"
   viewBox="0 0 85 22"
   version="1.1"
   id="svg12"
   sodipodi:docname="logo.svg"
   inkscape:version="0.92.3 (2405546, 2018-03-11)">
  <metadata
     id="metadata16">
    <rdf:RDF>
      <cc:Work
         rdf:about="">
        <dc:format>image/svg+xml</dc:format>
        <dc:type
           rdf:resource="http://purl.org/dc/dcmitype/StillImage" />
        <dc:title>car_front_view [#616]</dc:title>
      </cc:Work>
    </rdf:RDF>
  </metadata>
  <sodipodi:namedview
     pagecolor="#ffffff"
     bordercolor="#666666"
     borderopacity="1"
     objecttolerance="10"
     gridtolerance="10"
     guidetolerance="10"
     inkscape:pageopacity="0"
     inkscape:pageshadow="2"
     inkscape:window-width="1366"
     inkscape:window-height="705"
     id="namedview14"
     showgrid="false"
     inkscape:zoom="5.9"
     inkscape:cx="40.638486"
     inkscape:cy="16.177495"
     inkscape:window-x="-8"
     inkscape:window-y="-8"
     inkscape:window-maximized="1"
     inkscape:current-layer="svg12" />
  <!-- Generator: Sketch 3.8.1 (29687) - http://www.bohemiancoding.com/sketch -->
  <title
     id="title2">car_front_view [#616]</title>
  <desc
     id="desc4">Created with Sketch.</desc>
  <defs
     id="defs6" />
  <g
     id="Page-1"
     style="fill:#000000;fill-rule:evenodd;stroke:none;stroke-width:1"
     transform="translate(2.2033898,0.9830508)">
    <g
       id="Dribbble-Light-Preview"
       transform="translate(-140,-5479)"
       style="fill:#000000">
      <g
         id="icons"
         transform="translate(56,160)"
         style="fill:#000000">
        <path
           d="m 89,5335 v 0 c -0.552,0 -1,-0.448 -1,-1 0,-0.552 0.448,-1 1,-1 0.552,0 1,0.448 1,1 0,0.552 -0.448,1 -1,1 m 10,-2 v 0 c 0.552,0 1,0.448 1,1 0,0.552 -0.448,1 -1,1 -0.552,0 -1,-0.448 -1,-1 0,-0.552 0.448,-1 1,-1 m -8.398,-12 h 6.796 c 0.498,0 0.92,0.366 0.99,0.859 L 99.694,5331 H 88.306 l 1.306,-9.141 c 0.07,-0.493 0.492,-0.859 0.99,-0.859 m 13.398,7 v 0 c 0,-0.552 -0.448,-1 -1,-1 h -1.857 l -0.898,-6.283 c -0.14,-0.985 -0.984,-1.717 -1.98,-1.717 h -8.53 c -0.996,0 -1.84,0.732 -1.98,1.717 L 86.857,5327 H 85 c -0.552,0 -1,0.448 -1,1 0,0.552 0.448,1 1,1 h 1.571 l -0.285,2 H 86 c -1.105,0 -2,0.895 -2,2 v 2 c 0,1.105 0.895,2 2,2 v 1 c 0,0.552 0.448,1 1,1 h 2 c 0.552,0 1,-0.448 1,-1 v -1 h 8 v 1 c 0,0.552 0.448,1 1,1 h 2 c 0.552,0 1,-0.448 1,-1 v -1 c 1.105,0 2,-0.895 2,-2 v -2 c 0,-1.105 -0.895,-2 -2,-2 h -0.286 l -0.285,-2 H 103 c 0.552,0 1,-0.448 1,-1"
           id="car_front_view-[#616]"
           inkscape:connector-curvature="0"
           style="fill:#000000" />
      </g>
    </g>
  </g>
  <text
     xml:space="preserve"
     style="font-style:normal;font-weight:normal;font-size:13.33333302px;line-height:1.25;font-family:sans-serif;letter-spacing:0px;word-spacing:0px;fill:#ffffff;fill-opacity:1;stroke:none;"
     x="26.949154"
     y="15.898308"
     id="text4529"><tspan
       sodipodi:role="line"
       id="tspan4527"
       x="26.949154"
       y="15.898308"
       style="font-style:normal;font-variant:normal;font-weight:normal;font-stretch:normal;font-family:Impact;-inkscape-font-specification:Impact;fill:#ffffff;">Best Cars</tspan></text>
</svg>
